<mxfile host="app.diagrams.net" modified="2022-12-15T14:42:02.058Z" agent="5.0 (Macintosh; Intel Mac OS X 10_15_7) AppleWebKit/537.36 (KHTML, like Gecko) Chrome/108.0.0.0 Safari/537.36" etag="I6KJFVVH8nWALUJwEF0w" version="20.6.2" type="github">
  <diagram id="DBy1TSTR0VtcKm5UeJao" name="第 1 页">
    <mxGraphModel dx="1426" dy="867" grid="1" gridSize="10" guides="1" tooltips="1" connect="1" arrows="1" fold="1" page="1" pageScale="1" pageWidth="827" pageHeight="1169" math="0" shadow="0">
      <root>
        <mxCell id="0" />
        <mxCell id="1" parent="0" />
        <mxCell id="zGKozpmPH5F2_CWIpBns-3" value="seed&lt;font color=&quot;#ff6666&quot; style=&quot;font-size: 30px;&quot;&gt;小于&lt;/font&gt;一百亿的情况下ID的组成规则(十进制格式)" style="text;html=1;strokeColor=none;fillColor=none;align=center;verticalAlign=middle;whiteSpace=wrap;rounded=0;shadow=0;glass=0;sketch=0;fillWeight=10;hachureGap=12;jiggle=2;strokeWidth=2;fontFamily=Tahoma;fontSize=30;fontColor=#007FFF;fontStyle=0" vertex="1" parent="1">
          <mxGeometry x="340" y="660" width="699.99" height="60" as="geometry" />
        </mxCell>
        <mxCell id="zGKozpmPH5F2_CWIpBns-22" value="" style="rounded=1;whiteSpace=wrap;html=1;strokeWidth=2;fillWeight=4;hachureGap=12;hachureAngle=45;fillColor=#cce5ff;sketch=1;jiggle=2;fontFamily=Architects Daughter;fontSource=https%3A%2F%2Ffonts.googleapis.com%2Fcss%3Ffamily%3DArchitects%2BDaughter;fontSize=20;strokeColor=#6A7078;imageAspect=1;shadow=0;glass=0;" vertex="1" parent="1">
          <mxGeometry x="120" y="750" width="1160" height="170" as="geometry" />
        </mxCell>
        <mxCell id="zGKozpmPH5F2_CWIpBns-23" value="&lt;font style=&quot;font-size: 25px;&quot;&gt;seed&lt;br style=&quot;font-size: 25px;&quot;&gt;自增种子&lt;br&gt;(&lt;font color=&quot;#ff6666&quot;&gt;逆序&lt;/font&gt;放置)&lt;/font&gt;" style="text;html=1;strokeColor=none;fillColor=none;align=center;verticalAlign=middle;whiteSpace=wrap;rounded=0;sketch=1;hachureGap=4;jiggle=2;fontFamily=Architects Daughter;fontSource=https%3A%2F%2Ffonts.googleapis.com%2Fcss%3Ffamily%3DArchitects%2BDaughter;fontSize=25;" vertex="1" parent="1">
          <mxGeometry x="373.5" y="800" width="175" height="70" as="geometry" />
        </mxCell>
        <mxCell id="zGKozpmPH5F2_CWIpBns-24" value="" style="line;strokeWidth=2;direction=south;html=1;sketch=1;fillWeight=10;hachureGap=12;jiggle=2;fontFamily=Architects Daughter;fontSource=https%3A%2F%2Ffonts.googleapis.com%2Fcss%3Ffamily%3DArchitects%2BDaughter;fontSize=20;fillColor=#3333FF;strokeColor=#616161;" vertex="1" parent="1">
          <mxGeometry x="340" y="750" width="10" height="160" as="geometry" />
        </mxCell>
        <mxCell id="zGKozpmPH5F2_CWIpBns-25" value="" style="line;strokeWidth=2;direction=south;html=1;sketch=1;fillWeight=10;hachureGap=12;jiggle=2;fontFamily=Architects Daughter;fontSource=https%3A%2F%2Ffonts.googleapis.com%2Fcss%3Ffamily%3DArchitects%2BDaughter;fontSize=20;fillColor=#3333FF;strokeColor=#616161;" vertex="1" parent="1">
          <mxGeometry x="580" y="750" width="10" height="160" as="geometry" />
        </mxCell>
        <mxCell id="zGKozpmPH5F2_CWIpBns-26" value="" style="line;strokeWidth=2;direction=south;html=1;sketch=1;fillWeight=10;hachureGap=12;jiggle=2;fontFamily=Architects Daughter;fontSource=https%3A%2F%2Ffonts.googleapis.com%2Fcss%3Ffamily%3DArchitects%2BDaughter;fontSize=20;fillColor=#3333FF;strokeColor=#616161;" vertex="1" parent="1">
          <mxGeometry x="810" y="750" width="10" height="160" as="geometry" />
        </mxCell>
        <mxCell id="zGKozpmPH5F2_CWIpBns-27" value="" style="line;strokeWidth=2;direction=south;html=1;sketch=1;fillWeight=10;hachureGap=12;jiggle=2;fontFamily=Architects Daughter;fontSource=https%3A%2F%2Ffonts.googleapis.com%2Fcss%3Ffamily%3DArchitects%2BDaughter;fontSize=20;fillColor=#3333FF;strokeColor=#616161;" vertex="1" parent="1">
          <mxGeometry x="1040" y="750" width="10" height="160" as="geometry" />
        </mxCell>
        <mxCell id="zGKozpmPH5F2_CWIpBns-28" value="&lt;font style=&quot;font-size: 25px;&quot;&gt;padding_num&lt;br style=&quot;font-size: 25px;&quot;&gt;哈希数字填充(&lt;font color=&quot;#ff6666&quot;&gt;剔除&lt;font style=&quot;&quot; face=&quot;Helvetica&quot;&gt;0&lt;/font&gt;&lt;/font&gt;)&lt;br style=&quot;font-size: 25px;&quot;&gt;&lt;/font&gt;" style="text;html=1;strokeColor=none;fillColor=none;align=center;verticalAlign=middle;whiteSpace=wrap;rounded=0;sketch=1;hachureGap=4;jiggle=2;fontFamily=Architects Daughter;fontSource=https%3A%2F%2Ffonts.googleapis.com%2Fcss%3Ffamily%3DArchitects%2BDaughter;fontSize=25;" vertex="1" parent="1">
          <mxGeometry x="148.5" y="800" width="170" height="70" as="geometry" />
        </mxCell>
        <mxCell id="zGKozpmPH5F2_CWIpBns-29" value="&lt;font style=&quot;font-size: 25px;&quot;&gt;padding_length&lt;br&gt;填充长度&lt;br style=&quot;font-size: 25px;&quot;&gt;&lt;/font&gt;" style="text;html=1;strokeColor=none;fillColor=none;align=center;verticalAlign=middle;whiteSpace=wrap;rounded=0;sketch=1;hachureGap=4;jiggle=2;fontFamily=Architects Daughter;fontSource=https%3A%2F%2Ffonts.googleapis.com%2Fcss%3Ffamily%3DArchitects%2BDaughter;fontSize=25;" vertex="1" parent="1">
          <mxGeometry x="615" y="800" width="170" height="70" as="geometry" />
        </mxCell>
        <mxCell id="zGKozpmPH5F2_CWIpBns-30" value="&lt;font style=&quot;font-size: 25px;&quot;&gt;mark_id&lt;br&gt;标识位&lt;br style=&quot;font-size: 25px;&quot;&gt;&lt;br style=&quot;font-size: 25px;&quot;&gt;&lt;/font&gt;" style="text;html=1;strokeColor=none;fillColor=none;align=center;verticalAlign=middle;whiteSpace=wrap;rounded=0;sketch=1;hachureGap=4;jiggle=2;fontFamily=Architects Daughter;fontSource=https%3A%2F%2Ffonts.googleapis.com%2Fcss%3Ffamily%3DArchitects%2BDaughter;fontSize=25;" vertex="1" parent="1">
          <mxGeometry x="848.14" y="810" width="170" height="70" as="geometry" />
        </mxCell>
        <mxCell id="zGKozpmPH5F2_CWIpBns-31" value="&lt;font style=&quot;font-size: 25px;&quot;&gt;biz_id&lt;br style=&quot;font-size: 25px;&quot;&gt;业务身份标识&lt;br style=&quot;font-size: 25px;&quot;&gt;&lt;/font&gt;" style="text;html=1;strokeColor=none;fillColor=none;align=center;verticalAlign=middle;whiteSpace=wrap;rounded=0;sketch=1;hachureGap=4;jiggle=2;fontFamily=Architects Daughter;fontSource=https%3A%2F%2Ffonts.googleapis.com%2Fcss%3Ffamily%3DArchitects%2BDaughter;fontSize=25;" vertex="1" parent="1">
          <mxGeometry x="1078.12" y="795" width="170" height="70" as="geometry" />
        </mxCell>
        <mxCell id="zGKozpmPH5F2_CWIpBns-32" value="" style="shape=curlyBracket;whiteSpace=wrap;html=1;rounded=1;labelPosition=left;verticalLabelPosition=middle;align=right;verticalAlign=middle;shadow=0;glass=0;sketch=0;fillWeight=10;hachureGap=12;jiggle=2;strokeColor=#8F8F8F;strokeWidth=2;fontFamily=Architects Daughter;fontSource=https%3A%2F%2Ffonts.googleapis.com%2Fcss%3Ffamily%3DArchitects%2BDaughter;fontSize=25;fillColor=#3333FF;rotation=-90;gradientColor=default;" vertex="1" parent="1">
          <mxGeometry x="328.5" y="720" width="50" height="460" as="geometry" />
        </mxCell>
        <mxCell id="zGKozpmPH5F2_CWIpBns-33" value="" style="shape=curlyBracket;whiteSpace=wrap;html=1;rounded=1;labelPosition=left;verticalLabelPosition=middle;align=right;verticalAlign=middle;shadow=0;glass=0;sketch=0;fillWeight=10;hachureGap=12;jiggle=2;strokeColor=#616161;strokeWidth=2;fontFamily=Architects Daughter;fontSource=https%3A%2F%2Ffonts.googleapis.com%2Fcss%3Ffamily%3DArchitects%2BDaughter;fontSize=25;fillColor=#3333FF;rotation=-90;" vertex="1" parent="1">
          <mxGeometry x="673.45" y="832.2" width="48.75" height="235.62" as="geometry" />
        </mxCell>
        <mxCell id="zGKozpmPH5F2_CWIpBns-34" value="" style="shape=curlyBracket;whiteSpace=wrap;html=1;rounded=1;labelPosition=left;verticalLabelPosition=middle;align=right;verticalAlign=middle;shadow=0;glass=0;sketch=0;fillWeight=10;hachureGap=12;jiggle=2;strokeColor=#616161;strokeWidth=2;fontFamily=Architects Daughter;fontSource=https%3A%2F%2Ffonts.googleapis.com%2Fcss%3Ffamily%3DArchitects%2BDaughter;fontSize=25;fillColor=#3333FF;rotation=-90;" vertex="1" parent="1">
          <mxGeometry x="903.45" y="834.69" width="48.75" height="230.63" as="geometry" />
        </mxCell>
        <mxCell id="zGKozpmPH5F2_CWIpBns-35" value="" style="shape=curlyBracket;whiteSpace=wrap;html=1;rounded=1;labelPosition=left;verticalLabelPosition=middle;align=right;verticalAlign=middle;shadow=0;glass=0;sketch=0;fillWeight=10;hachureGap=12;jiggle=2;strokeColor=#616161;strokeWidth=2;fontFamily=Architects Daughter;fontSource=https%3A%2F%2Ffonts.googleapis.com%2Fcss%3Ffamily%3DArchitects%2BDaughter;fontSize=25;fillColor=#3333FF;rotation=-90;" vertex="1" parent="1">
          <mxGeometry x="1136.26" y="834.38" width="48.75" height="231.25" as="geometry" />
        </mxCell>
        <mxCell id="zGKozpmPH5F2_CWIpBns-36" value="10位" style="text;html=1;strokeColor=none;fillColor=none;align=center;verticalAlign=middle;whiteSpace=wrap;rounded=0;shadow=0;glass=0;sketch=1;fillWeight=10;hachureGap=12;jiggle=2;strokeWidth=2;fontFamily=Tahoma;fontSize=27;fontColor=#007FFF;" vertex="1" parent="1">
          <mxGeometry x="297.75" y="975" width="111.5" height="50" as="geometry" />
        </mxCell>
        <mxCell id="zGKozpmPH5F2_CWIpBns-37" value="1位" style="text;html=1;strokeColor=none;fillColor=none;align=center;verticalAlign=middle;whiteSpace=wrap;rounded=0;shadow=0;glass=0;sketch=1;fillWeight=10;hachureGap=12;jiggle=2;strokeWidth=2;fontFamily=Tahoma;fontSize=27;fontColor=#007FFF;" vertex="1" parent="1">
          <mxGeometry x="655" y="980" width="90" height="40" as="geometry" />
        </mxCell>
        <mxCell id="zGKozpmPH5F2_CWIpBns-38" value="1位" style="text;html=1;strokeColor=none;fillColor=none;align=center;verticalAlign=middle;whiteSpace=wrap;rounded=0;shadow=0;glass=0;sketch=1;fillWeight=10;hachureGap=12;jiggle=2;strokeWidth=2;fontFamily=Tahoma;fontSize=27;fontColor=#007FFF;" vertex="1" parent="1">
          <mxGeometry x="890" y="980" width="90" height="40" as="geometry" />
        </mxCell>
        <mxCell id="zGKozpmPH5F2_CWIpBns-39" value="3位" style="text;html=1;strokeColor=none;fillColor=none;align=center;verticalAlign=middle;whiteSpace=wrap;rounded=0;shadow=0;glass=0;sketch=1;fillWeight=10;hachureGap=12;jiggle=2;strokeWidth=2;fontFamily=Tahoma;fontSize=27;fontColor=#007FFF;" vertex="1" parent="1">
          <mxGeometry x="1118.12" y="980" width="90" height="40" as="geometry" />
        </mxCell>
        <mxCell id="zGKozpmPH5F2_CWIpBns-40" value="" style="rounded=1;whiteSpace=wrap;html=1;strokeWidth=2;fillWeight=4;hachureGap=12;hachureAngle=45;fillColor=#cce5ff;sketch=1;jiggle=2;fontFamily=Architects Daughter;fontSource=https%3A%2F%2Ffonts.googleapis.com%2Fcss%3Ffamily%3DArchitects%2BDaughter;fontSize=20;strokeColor=#6A7078;imageAspect=1;shadow=0;glass=0;" vertex="1" parent="1">
          <mxGeometry x="130" y="1210" width="1160" height="170" as="geometry" />
        </mxCell>
        <mxCell id="zGKozpmPH5F2_CWIpBns-41" value="&lt;font style=&quot;font-size: 25px;&quot;&gt;seed&lt;br style=&quot;font-size: 25px;&quot;&gt;自增种子&lt;br&gt;(&lt;font color=&quot;#ff6666&quot;&gt;逆序&lt;/font&gt;放置)&lt;/font&gt;" style="text;html=1;strokeColor=none;fillColor=none;align=center;verticalAlign=middle;whiteSpace=wrap;rounded=0;sketch=1;hachureGap=4;jiggle=2;fontFamily=Architects Daughter;fontSource=https%3A%2F%2Ffonts.googleapis.com%2Fcss%3Ffamily%3DArchitects%2BDaughter;fontSize=25;" vertex="1" parent="1">
          <mxGeometry x="505" y="1250" width="280" height="90" as="geometry" />
        </mxCell>
        <mxCell id="zGKozpmPH5F2_CWIpBns-45" value="" style="line;strokeWidth=2;direction=south;html=1;sketch=1;fillWeight=10;hachureGap=12;jiggle=2;fontFamily=Architects Daughter;fontSource=https%3A%2F%2Ffonts.googleapis.com%2Fcss%3Ffamily%3DArchitects%2BDaughter;fontSize=20;fillColor=#3333FF;strokeColor=#616161;" vertex="1" parent="1">
          <mxGeometry x="1050" y="1210" width="10" height="170" as="geometry" />
        </mxCell>
        <mxCell id="zGKozpmPH5F2_CWIpBns-47" value="&lt;font style=&quot;&quot;&gt;seed_length&lt;br style=&quot;font-size: 25px;&quot;&gt;种子长度&lt;br&gt;（只保留&lt;font color=&quot;#ff6666&quot;&gt;个位&lt;/font&gt;，从&lt;font color=&quot;#ff6666&quot; style=&quot;font-size: 27px;&quot; face=&quot;Helvetica&quot;&gt;1&lt;/font&gt;开始）&lt;br style=&quot;font-size: 25px;&quot;&gt;&lt;/font&gt;" style="text;html=1;strokeColor=none;fillColor=none;align=center;verticalAlign=middle;whiteSpace=wrap;rounded=0;sketch=1;hachureGap=4;jiggle=2;fontFamily=Architects Daughter;fontSource=https%3A%2F%2Ffonts.googleapis.com%2Fcss%3Ffamily%3DArchitects%2BDaughter;fontSize=25;" vertex="1" parent="1">
          <mxGeometry x="158.49" y="1250" width="300" height="80" as="geometry" />
        </mxCell>
        <mxCell id="zGKozpmPH5F2_CWIpBns-48" value="&lt;font style=&quot;font-size: 25px;&quot;&gt;mark_id&lt;br&gt;标识位&lt;br style=&quot;font-size: 25px;&quot;&gt;&lt;/font&gt;" style="text;html=1;strokeColor=none;fillColor=none;align=center;verticalAlign=middle;whiteSpace=wrap;rounded=0;sketch=1;hachureGap=4;jiggle=2;fontFamily=Architects Daughter;fontSource=https%3A%2F%2Ffonts.googleapis.com%2Fcss%3Ffamily%3DArchitects%2BDaughter;fontSize=25;" vertex="1" parent="1">
          <mxGeometry x="858.14" y="1260" width="170" height="70" as="geometry" />
        </mxCell>
        <mxCell id="zGKozpmPH5F2_CWIpBns-49" value="&lt;font style=&quot;font-size: 25px;&quot;&gt;biz_id&lt;br style=&quot;font-size: 25px;&quot;&gt;业务身份标识&lt;br style=&quot;font-size: 25px;&quot;&gt;&lt;/font&gt;" style="text;html=1;strokeColor=none;fillColor=none;align=center;verticalAlign=middle;whiteSpace=wrap;rounded=0;sketch=1;hachureGap=4;jiggle=2;fontFamily=Architects Daughter;fontSource=https%3A%2F%2Ffonts.googleapis.com%2Fcss%3Ffamily%3DArchitects%2BDaughter;fontSize=25;" vertex="1" parent="1">
          <mxGeometry x="1088.12" y="1255" width="170" height="70" as="geometry" />
        </mxCell>
        <mxCell id="zGKozpmPH5F2_CWIpBns-50" value="" style="shape=curlyBracket;whiteSpace=wrap;html=1;rounded=1;labelPosition=left;verticalLabelPosition=middle;align=right;verticalAlign=middle;shadow=0;glass=0;sketch=0;fillWeight=10;hachureGap=12;jiggle=2;strokeColor=#8F8F8F;strokeWidth=2;fontFamily=Architects Daughter;fontSource=https%3A%2F%2Ffonts.googleapis.com%2Fcss%3Ffamily%3DArchitects%2BDaughter;fontSize=25;fillColor=#3333FF;rotation=-90;gradientColor=default;" vertex="1" parent="1">
          <mxGeometry x="283.5" y="1235" width="50" height="350" as="geometry" />
        </mxCell>
        <mxCell id="zGKozpmPH5F2_CWIpBns-51" value="" style="shape=curlyBracket;whiteSpace=wrap;html=1;rounded=1;labelPosition=left;verticalLabelPosition=middle;align=right;verticalAlign=middle;shadow=0;glass=0;sketch=0;fillWeight=10;hachureGap=12;jiggle=2;strokeColor=#616161;strokeWidth=2;fontFamily=Architects Daughter;fontSource=https%3A%2F%2Ffonts.googleapis.com%2Fcss%3Ffamily%3DArchitects%2BDaughter;fontSize=25;fillColor=#3333FF;rotation=-90;" vertex="1" parent="1">
          <mxGeometry x="629.07" y="1242.19" width="48.75" height="335.63" as="geometry" />
        </mxCell>
        <mxCell id="zGKozpmPH5F2_CWIpBns-52" value="" style="shape=curlyBracket;whiteSpace=wrap;html=1;rounded=1;labelPosition=left;verticalLabelPosition=middle;align=right;verticalAlign=middle;shadow=0;glass=0;sketch=0;fillWeight=10;hachureGap=12;jiggle=2;strokeColor=#616161;strokeWidth=2;fontFamily=Architects Daughter;fontSource=https%3A%2F%2Ffonts.googleapis.com%2Fcss%3Ffamily%3DArchitects%2BDaughter;fontSize=25;fillColor=#3333FF;rotation=-90;" vertex="1" parent="1">
          <mxGeometry x="914.39" y="1294.38" width="48.75" height="231.25" as="geometry" />
        </mxCell>
        <mxCell id="zGKozpmPH5F2_CWIpBns-53" value="" style="shape=curlyBracket;whiteSpace=wrap;html=1;rounded=1;labelPosition=left;verticalLabelPosition=middle;align=right;verticalAlign=middle;shadow=0;glass=0;sketch=0;fillWeight=10;hachureGap=12;jiggle=2;strokeColor=#616161;strokeWidth=2;fontFamily=Architects Daughter;fontSource=https%3A%2F%2Ffonts.googleapis.com%2Fcss%3Ffamily%3DArchitects%2BDaughter;fontSize=25;fillColor=#3333FF;rotation=-90;" vertex="1" parent="1">
          <mxGeometry x="1146.26" y="1294.38" width="48.75" height="231.25" as="geometry" />
        </mxCell>
        <mxCell id="zGKozpmPH5F2_CWIpBns-54" value="1位" style="text;html=1;strokeColor=none;fillColor=none;align=center;verticalAlign=middle;whiteSpace=wrap;rounded=0;shadow=0;glass=0;sketch=1;fillWeight=10;hachureGap=12;jiggle=2;strokeWidth=2;fontFamily=Tahoma;fontSize=27;fontColor=#007FFF;" vertex="1" parent="1">
          <mxGeometry x="248.5" y="1435" width="111.5" height="50" as="geometry" />
        </mxCell>
        <mxCell id="zGKozpmPH5F2_CWIpBns-55" value="&lt;font color=&quot;#007fff&quot;&gt;10-14位&lt;/font&gt;" style="text;html=1;strokeColor=none;fillColor=none;align=center;verticalAlign=middle;whiteSpace=wrap;rounded=0;shadow=0;glass=0;sketch=1;fillWeight=10;hachureGap=12;jiggle=2;strokeWidth=2;fontFamily=Tahoma;fontSize=27;" vertex="1" parent="1">
          <mxGeometry x="568.77" y="1435" width="169.36" height="50" as="geometry" />
        </mxCell>
        <mxCell id="zGKozpmPH5F2_CWIpBns-56" value="1位" style="text;html=1;strokeColor=none;fillColor=none;align=center;verticalAlign=middle;whiteSpace=wrap;rounded=0;shadow=0;glass=0;sketch=1;fillWeight=10;hachureGap=12;jiggle=2;strokeWidth=2;fontFamily=Tahoma;fontSize=27;fontColor=#007FFF;" vertex="1" parent="1">
          <mxGeometry x="900" y="1440" width="90" height="40" as="geometry" />
        </mxCell>
        <mxCell id="zGKozpmPH5F2_CWIpBns-57" value="3位" style="text;html=1;strokeColor=none;fillColor=none;align=center;verticalAlign=middle;whiteSpace=wrap;rounded=0;shadow=0;glass=0;sketch=1;fillWeight=10;hachureGap=12;jiggle=2;strokeWidth=2;fontFamily=Tahoma;fontSize=27;fontColor=#007FFF;" vertex="1" parent="1">
          <mxGeometry x="1130.01" y="1440" width="90" height="40" as="geometry" />
        </mxCell>
        <mxCell id="zGKozpmPH5F2_CWIpBns-58" value="&lt;span style=&quot;color: rgb(0, 127, 255); font-size: 30px;&quot;&gt;seed&lt;/span&gt;&lt;font color=&quot;#ff6666&quot; style=&quot;font-size: 30px;&quot;&gt;不小于&lt;/font&gt;&lt;span style=&quot;color: rgb(0, 127, 255); font-size: 30px;&quot;&gt;一百亿的情况下ID的组成规则(十进制格式)&lt;/span&gt;" style="text;html=1;strokeColor=none;fillColor=none;align=center;verticalAlign=middle;whiteSpace=wrap;rounded=0;shadow=0;glass=0;sketch=0;fillWeight=10;hachureGap=12;jiggle=2;strokeWidth=2;fontFamily=Tahoma;fontSize=30;" vertex="1" parent="1">
          <mxGeometry x="338.49" y="1120" width="721.5" height="60" as="geometry" />
        </mxCell>
        <mxCell id="zGKozpmPH5F2_CWIpBns-61" value="" style="line;strokeWidth=2;direction=south;html=1;sketch=1;fillWeight=10;hachureGap=12;jiggle=2;fontFamily=Architects Daughter;fontSource=https%3A%2F%2Ffonts.googleapis.com%2Fcss%3Ffamily%3DArchitects%2BDaughter;fontSize=20;fillColor=#3333FF;strokeColor=#616161;" vertex="1" parent="1">
          <mxGeometry x="479.99" y="1210" width="10" height="160" as="geometry" />
        </mxCell>
        <mxCell id="zGKozpmPH5F2_CWIpBns-62" value="" style="line;strokeWidth=2;direction=south;html=1;sketch=1;fillWeight=10;hachureGap=12;jiggle=2;fontFamily=Architects Daughter;fontSource=https%3A%2F%2Ffonts.googleapis.com%2Fcss%3Ffamily%3DArchitects%2BDaughter;fontSize=20;fillColor=#3333FF;strokeColor=#616161;" vertex="1" parent="1">
          <mxGeometry x="819.99" y="1210" width="10" height="170" as="geometry" />
        </mxCell>
        <mxCell id="zGKozpmPH5F2_CWIpBns-66" value="" style="endArrow=none;html=1;rounded=0;fontFamily=Helvetica;fontSize=30;fontColor=#007FFF;strokeWidth=3;strokeColor=#808080;sketch=0;shadow=0;dashed=1;edgeStyle=orthogonalEdgeStyle;" edge="1" parent="1">
          <mxGeometry width="50" height="50" relative="1" as="geometry">
            <mxPoint x="80" y="1080" as="sourcePoint" />
            <mxPoint x="1350" y="1080" as="targetPoint" />
          </mxGeometry>
        </mxCell>
      </root>
    </mxGraphModel>
  </diagram>
</mxfile>
